<svg id="svg" version="1.1" xmlns="http://www.w3.org/2000/svg" xmlns:xlink="http://www.w3.org/1999/xlink" width="400" height="400" viewBox="0, 0, 400,400"><g id="svgg"><path id="path0" d="M184.800 68.800 C 184.800 69.029,183.600 69.200,182.000 69.200 C 180.400 69.200,179.200 69.371,179.200 69.600 C 179.200 69.820,178.210 70.000,177.000 70.000 C 175.790 70.000,174.800 70.180,174.800 70.400 C 174.800 70.620,173.900 70.800,172.800 70.800 C 171.700 70.800,170.800 70.980,170.800 71.200 C 170.800 71.420,170.080 71.600,169.200 71.600 C 168.320 71.600,167.600 71.780,167.600 72.000 C 167.600 72.220,166.880 72.400,166.000 72.400 C 165.120 72.400,164.400 72.580,164.400 72.800 C 164.400 73.020,163.871 73.200,163.224 73.200 C 162.577 73.200,161.936 73.380,161.800 73.600 C 161.664 73.820,161.023 74.000,160.376 74.000 C 159.729 74.000,159.200 74.180,159.200 74.400 C 159.200 74.620,158.811 74.800,158.335 74.800 C 157.220 74.800,153.041 76.095,152.867 76.494 C 152.793 76.662,152.309 76.800,151.790 76.800 C 151.272 76.800,150.736 76.980,150.600 77.200 C 150.464 77.420,150.003 77.600,149.576 77.600 C 149.149 77.600,148.800 77.780,148.800 78.000 C 148.800 78.220,148.465 78.400,148.056 78.400 C 147.254 78.400,142.287 80.805,142.067 81.300 C 141.993 81.465,141.588 81.600,141.167 81.600 C 140.745 81.600,140.400 81.780,140.400 82.000 C 140.400 82.220,140.040 82.400,139.600 82.400 C 139.160 82.400,138.800 82.580,138.800 82.800 C 138.800 83.020,138.440 83.200,138.000 83.200 C 137.560 83.200,137.200 83.380,137.200 83.600 C 137.200 83.820,136.840 84.000,136.400 84.000 C 135.960 84.000,135.600 84.180,135.600 84.400 C 135.600 84.620,135.280 84.800,134.888 84.800 C 134.497 84.800,133.917 85.160,133.600 85.600 C 133.283 86.040,132.703 86.400,132.312 86.400 C 131.920 86.400,131.600 86.580,131.600 86.800 C 131.600 87.020,131.280 87.200,130.888 87.200 C 130.497 87.200,129.917 87.560,129.600 88.000 C 129.283 88.440,128.743 88.800,128.400 88.800 C 128.057 88.800,127.517 89.160,127.200 89.600 C 126.883 90.040,126.433 90.400,126.200 90.400 C 125.967 90.400,125.517 90.760,125.200 91.200 C 124.883 91.640,124.311 92.000,123.930 92.000 C 123.548 92.000,122.786 92.450,122.236 93.000 C 121.686 93.550,121.030 94.000,120.779 94.000 C 120.527 94.000,119.817 94.540,119.200 95.200 C 118.583 95.860,117.870 96.400,117.614 96.400 C 117.358 96.400,116.271 97.300,115.200 98.400 C 114.129 99.500,113.068 100.400,112.843 100.400 C 112.617 100.400,111.571 101.313,110.517 102.428 C 108.074 105.013,105.013 108.074,102.428 110.517 C 101.313 111.571,100.400 112.617,100.400 112.843 C 100.400 113.068,99.500 114.129,98.400 115.200 C 97.300 116.271,96.400 117.358,96.400 117.614 C 96.400 117.870,95.860 118.583,95.200 119.200 C 94.540 119.817,94.000 120.527,94.000 120.779 C 94.000 121.030,93.550 121.686,93.000 122.236 C 92.450 122.786,92.000 123.548,92.000 123.930 C 92.000 124.311,91.640 124.883,91.200 125.200 C 90.760 125.517,90.400 125.967,90.400 126.200 C 90.400 126.433,90.040 126.883,89.600 127.200 C 89.160 127.517,88.800 128.057,88.800 128.400 C 88.800 128.743,88.440 129.283,88.000 129.600 C 87.560 129.917,87.200 130.497,87.200 130.888 C 87.200 131.280,87.020 131.600,86.800 131.600 C 86.580 131.600,86.400 131.920,86.400 132.312 C 86.400 132.703,86.040 133.283,85.600 133.600 C 85.160 133.917,84.800 134.497,84.800 134.888 C 84.800 135.280,84.620 135.600,84.400 135.600 C 84.180 135.600,84.000 135.960,84.000 136.400 C 84.000 136.840,83.820 137.200,83.600 137.200 C 83.380 137.200,83.200 137.560,83.200 138.000 C 83.200 138.440,83.020 138.800,82.800 138.800 C 82.580 138.800,82.400 139.160,82.400 139.600 C 82.400 140.040,82.220 140.400,82.000 140.400 C 81.780 140.400,81.600 140.745,81.600 141.167 C 81.600 141.588,81.465 141.993,81.300 142.067 C 80.805 142.287,78.400 147.254,78.400 148.056 C 78.400 148.465,78.220 148.800,78.000 148.800 C 77.780 148.800,77.600 149.149,77.600 149.576 C 77.600 150.003,77.420 150.464,77.200 150.600 C 76.980 150.736,76.800 151.251,76.800 151.744 C 76.800 152.237,76.644 152.811,76.453 153.020 C 75.939 153.583,74.800 157.201,74.800 158.271 C 74.800 158.782,74.620 159.200,74.400 159.200 C 74.180 159.200,74.000 159.729,74.000 160.376 C 74.000 161.023,73.820 161.664,73.600 161.800 C 73.380 161.936,73.200 162.577,73.200 163.224 C 73.200 163.871,73.020 164.400,72.800 164.400 C 72.580 164.400,72.400 165.120,72.400 166.000 C 72.400 166.880,72.220 167.600,72.000 167.600 C 71.780 167.600,71.600 168.320,71.600 169.200 C 71.600 170.080,71.420 170.800,71.200 170.800 C 70.980 170.800,70.800 171.700,70.800 172.800 C 70.800 173.900,70.620 174.800,70.400 174.800 C 70.180 174.800,70.000 175.790,70.000 177.000 C 70.000 178.210,69.820 179.200,69.600 179.200 C 69.371 179.200,69.200 180.400,69.200 182.000 C 69.200 183.600,69.029 184.800,68.800 184.800 C 68.251 184.800,68.251 214.661,68.800 215.000 C 69.020 215.136,69.200 216.497,69.200 218.024 C 69.200 219.608,69.372 220.800,69.600 220.800 C 69.820 220.800,70.000 221.790,70.000 223.000 C 70.000 224.210,70.180 225.200,70.400 225.200 C 70.620 225.200,70.800 226.100,70.800 227.200 C 70.800 228.300,70.980 229.200,71.200 229.200 C 71.420 229.200,71.600 229.920,71.600 230.800 C 71.600 231.680,71.780 232.400,72.000 232.400 C 72.220 232.400,72.400 233.120,72.400 234.000 C 72.400 234.880,72.580 235.600,72.800 235.600 C 73.020 235.600,73.200 236.129,73.200 236.776 C 73.200 237.423,73.380 238.064,73.600 238.200 C 73.820 238.336,74.000 238.977,74.000 239.624 C 74.000 240.271,74.180 240.800,74.400 240.800 C 74.620 240.800,74.800 241.340,74.800 242.000 C 74.800 242.660,74.941 243.200,75.113 243.200 C 75.285 243.200,75.465 243.677,75.513 244.260 C 75.561 244.842,75.871 245.860,76.200 246.521 C 76.530 247.182,76.800 248.045,76.800 248.438 C 76.800 248.831,76.980 249.264,77.200 249.400 C 77.420 249.536,77.600 249.997,77.600 250.424 C 77.600 250.851,77.780 251.200,78.000 251.200 C 78.220 251.200,78.400 251.472,78.400 251.804 C 78.400 252.561,80.051 256.153,80.481 256.333 C 80.657 256.407,80.800 256.812,80.800 257.233 C 80.800 257.655,80.980 258.000,81.200 258.000 C 81.420 258.000,81.600 258.360,81.600 258.800 C 81.600 259.240,81.780 259.600,82.000 259.600 C 82.220 259.600,82.400 259.960,82.400 260.400 C 82.400 260.840,82.580 261.200,82.800 261.200 C 83.020 261.200,83.200 261.560,83.200 262.000 C 83.200 262.440,83.380 262.800,83.600 262.800 C 83.820 262.800,84.000 263.160,84.000 263.600 C 84.000 264.040,84.180 264.400,84.400 264.400 C 84.620 264.400,84.800 264.720,84.800 265.112 C 84.800 265.503,85.160 266.083,85.600 266.400 C 86.040 266.717,86.400 267.297,86.400 267.688 C 86.400 268.080,86.580 268.400,86.800 268.400 C 87.020 268.400,87.200 268.720,87.200 269.112 C 87.200 269.503,87.560 270.083,88.000 270.400 C 88.440 270.717,88.800 271.257,88.800 271.600 C 88.800 271.943,89.160 272.483,89.600 272.800 C 90.040 273.117,90.400 273.567,90.400 273.800 C 90.400 274.033,90.760 274.483,91.200 274.800 C 91.640 275.117,92.000 275.654,92.000 275.992 C 92.000 276.331,92.450 277.093,93.000 277.687 C 93.550 278.280,94.000 279.054,94.000 279.406 C 94.000 279.759,94.180 279.936,94.400 279.800 C 94.620 279.664,94.800 279.794,94.800 280.088 C 94.800 280.383,95.160 280.883,95.600 281.200 C 96.040 281.517,96.400 282.007,96.400 282.288 C 96.400 282.570,96.580 282.800,96.800 282.800 C 97.020 282.800,97.200 282.994,97.200 283.231 C 97.200 283.469,97.920 284.354,98.800 285.200 C 99.680 286.046,100.404 286.886,100.410 287.069 C 100.422 287.500,112.571 299.600,112.992 299.600 C 113.169 299.600,113.829 300.140,114.460 300.800 C 115.091 301.460,115.796 302.000,116.027 302.000 C 116.258 302.000,116.336 302.180,116.200 302.400 C 116.064 302.620,116.218 302.800,116.543 302.800 C 116.868 302.800,117.193 302.956,117.267 303.147 C 117.340 303.338,117.832 303.629,118.361 303.793 C 119.134 304.034,119.274 303.971,119.081 303.467 C 118.914 303.033,119.019 302.909,119.420 303.063 C 120.077 303.315,120.209 304.000,119.600 304.000 C 119.380 304.000,119.200 304.270,119.200 304.600 C 119.200 304.930,119.481 305.200,119.824 305.200 C 120.194 305.200,120.331 305.388,120.161 305.663 C 119.965 305.980,120.146 306.055,120.737 305.900 C 121.358 305.738,121.609 305.861,121.632 306.337 C 121.654 306.806,121.726 306.843,121.877 306.464 C 122.025 306.092,122.233 306.214,122.555 306.861 C 122.811 307.373,123.373 307.861,123.804 307.944 C 124.236 308.027,124.916 308.473,125.317 308.935 C 125.887 309.592,126.116 309.659,126.373 309.244 C 126.602 308.873,126.782 308.847,126.974 309.157 C 127.124 309.401,127.133 309.784,126.994 310.010 C 126.855 310.235,126.979 310.370,127.270 310.310 C 127.562 310.249,127.751 310.438,127.690 310.730 C 127.630 311.021,127.763 311.146,127.987 311.008 C 128.210 310.870,128.853 311.217,129.415 311.778 C 130.529 312.892,131.186 313.081,131.225 312.300 C 131.239 312.025,131.420 312.224,131.628 312.742 C 131.869 313.345,132.220 313.601,132.603 313.454 C 132.931 313.328,133.200 313.412,133.200 313.641 C 133.200 314.268,134.259 315.200,134.971 315.200 C 135.317 315.200,135.600 315.380,135.600 315.600 C 135.600 315.820,136.140 316.000,136.800 316.000 C 137.460 316.000,138.000 316.180,138.000 316.400 C 138.000 316.620,138.345 316.800,138.767 316.800 C 139.188 316.800,139.593 316.967,139.667 317.170 C 139.740 317.374,140.070 317.599,140.400 317.670 C 140.730 317.742,141.291 318.115,141.647 318.500 C 142.003 318.885,142.580 319.200,142.929 319.200 C 143.279 319.200,144.247 319.663,145.082 320.230 C 145.917 320.796,147.095 321.359,147.700 321.480 C 148.305 321.601,148.800 321.819,148.800 321.965 C 148.800 322.111,149.202 322.260,149.694 322.297 C 150.186 322.334,150.651 322.552,150.727 322.782 C 150.804 323.012,151.291 323.200,151.810 323.200 C 152.328 323.200,152.851 323.359,152.972 323.554 C 153.092 323.749,154.408 324.215,155.895 324.588 C 157.383 324.962,158.913 325.433,159.295 325.634 C 159.677 325.835,160.341 326.000,160.771 326.000 C 161.201 326.000,161.664 326.180,161.800 326.400 C 161.936 326.620,162.577 326.800,163.224 326.800 C 163.871 326.800,164.400 326.980,164.400 327.200 C 164.400 327.420,165.120 327.600,166.000 327.600 C 166.880 327.600,167.600 327.780,167.600 328.000 C 167.600 328.220,168.320 328.400,169.200 328.400 C 170.080 328.400,170.800 328.580,170.800 328.800 C 170.800 329.020,171.700 329.200,172.800 329.200 C 173.900 329.200,174.800 329.380,174.800 329.600 C 174.800 329.820,175.790 330.000,177.000 330.000 C 178.210 330.000,179.200 330.180,179.200 330.400 C 179.200 330.629,180.400 330.800,182.000 330.800 C 183.600 330.800,184.800 330.971,184.800 331.200 C 184.800 331.460,190.133 331.600,200.000 331.600 C 209.867 331.600,215.200 331.460,215.200 331.200 C 215.200 330.971,216.400 330.800,218.000 330.800 C 219.600 330.800,220.800 330.629,220.800 330.400 C 220.800 330.180,221.790 330.000,223.000 330.000 C 224.210 330.000,225.200 329.820,225.200 329.600 C 225.200 329.380,226.100 329.200,227.200 329.200 C 228.300 329.200,229.200 329.020,229.200 328.800 C 229.200 328.580,229.920 328.400,230.800 328.400 C 231.680 328.400,232.400 328.220,232.400 328.000 C 232.400 327.780,233.120 327.600,234.000 327.600 C 234.880 327.600,235.600 327.440,235.600 327.245 C 235.600 326.910,236.488 326.658,239.500 326.137 C 240.215 326.014,240.800 325.752,240.800 325.556 C 240.800 325.360,241.238 325.200,241.774 325.200 C 242.310 325.200,243.255 324.992,243.874 324.739 C 244.493 324.485,245.356 324.210,245.791 324.127 C 246.227 324.045,246.758 323.802,246.971 323.589 C 247.185 323.375,247.763 323.200,248.256 323.200 C 248.749 323.200,249.264 323.020,249.400 322.800 C 249.536 322.580,249.997 322.400,250.424 322.400 C 250.851 322.400,251.200 322.220,251.200 322.000 C 251.200 321.780,251.535 321.600,251.944 321.600 C 252.746 321.600,257.713 319.195,257.933 318.700 C 258.007 318.535,258.412 318.400,258.833 318.400 C 259.255 318.400,259.600 318.220,259.600 318.000 C 259.600 317.780,259.960 317.600,260.400 317.600 C 260.840 317.600,261.200 317.420,261.200 317.200 C 261.200 316.980,261.560 316.800,262.000 316.800 C 262.440 316.800,262.800 316.620,262.800 316.400 C 262.800 316.180,263.160 316.000,263.600 316.000 C 264.040 316.000,264.400 315.820,264.400 315.600 C 264.400 315.380,264.720 315.200,265.112 315.200 C 265.503 315.200,266.083 314.840,266.400 314.400 C 266.717 313.960,267.297 313.600,267.688 313.600 C 268.080 313.600,268.400 313.420,268.400 313.200 C 268.400 312.980,268.720 312.800,269.112 312.800 C 269.503 312.800,270.083 312.440,270.400 312.000 C 270.717 311.560,271.257 311.200,271.600 311.200 C 271.943 311.200,272.483 310.840,272.800 310.400 C 273.117 309.960,273.567 309.600,273.800 309.600 C 274.033 309.600,274.483 309.240,274.800 308.800 C 275.117 308.360,275.689 308.000,276.070 308.000 C 276.452 308.000,277.214 307.550,277.764 307.000 C 278.314 306.450,278.970 306.000,279.221 306.000 C 279.473 306.000,280.183 305.460,280.800 304.800 C 281.417 304.140,282.130 303.600,282.386 303.600 C 282.642 303.600,283.729 302.700,284.800 301.600 C 285.871 300.500,286.932 299.600,287.157 299.600 C 287.383 299.600,288.429 298.687,289.483 297.572 C 291.926 294.987,294.987 291.926,297.572 289.483 C 298.687 288.429,299.600 287.383,299.600 287.157 C 299.600 286.932,300.500 285.871,301.600 284.800 C 302.700 283.729,303.600 282.642,303.600 282.386 C 303.600 282.130,304.140 281.417,304.800 280.800 C 305.460 280.183,306.000 279.473,306.000 279.221 C 306.000 278.970,306.450 278.314,307.000 277.764 C 307.550 277.214,308.000 276.452,308.000 276.070 C 308.000 275.689,308.360 275.117,308.800 274.800 C 309.240 274.483,309.600 274.033,309.600 273.800 C 309.600 273.567,309.960 273.117,310.400 272.800 C 310.840 272.483,311.200 271.943,311.200 271.600 C 311.200 271.257,311.560 270.717,312.000 270.400 C 312.440 270.083,312.800 269.503,312.800 269.112 C 312.800 268.720,312.980 268.400,313.200 268.400 C 313.420 268.400,313.600 268.080,313.600 267.688 C 313.600 267.297,313.960 266.717,314.400 266.400 C 314.840 266.083,315.200 265.503,315.200 265.112 C 315.200 264.720,315.380 264.400,315.600 264.400 C 315.820 264.400,316.000 264.040,316.000 263.600 C 316.000 263.160,316.180 262.800,316.400 262.800 C 316.620 262.800,316.800 262.440,316.800 262.000 C 316.800 261.560,316.980 261.200,317.200 261.200 C 317.420 261.200,317.600 260.840,317.600 260.400 C 317.600 259.960,317.780 259.600,318.000 259.600 C 318.220 259.600,318.400 259.255,318.400 258.833 C 318.400 258.412,318.535 258.007,318.700 257.933 C 319.195 257.713,321.600 252.746,321.600 251.944 C 321.600 251.535,321.780 251.200,322.000 251.200 C 322.220 251.200,322.400 250.851,322.400 250.424 C 322.400 249.997,322.580 249.536,322.800 249.400 C 323.020 249.264,323.200 248.728,323.200 248.210 C 323.200 247.691,323.338 247.207,323.506 247.133 C 323.905 246.959,325.200 242.780,325.200 241.665 C 325.200 241.189,325.380 240.800,325.600 240.800 C 325.820 240.800,326.000 240.271,326.000 239.624 C 326.000 238.977,326.180 238.336,326.400 238.200 C 326.620 238.064,326.800 237.423,326.800 236.776 C 326.800 236.129,326.980 235.600,327.200 235.600 C 327.420 235.600,327.600 234.880,327.600 234.000 C 327.600 233.120,327.780 232.400,328.000 232.400 C 328.220 232.400,328.400 231.680,328.400 230.800 C 328.400 229.920,328.580 229.200,328.800 229.200 C 329.020 229.200,329.200 228.300,329.200 227.200 C 329.200 226.100,329.380 225.200,329.600 225.200 C 329.820 225.200,330.000 224.210,330.000 223.000 C 330.000 221.790,330.180 220.800,330.400 220.800 C 330.629 220.800,330.800 219.600,330.800 218.000 C 330.800 216.400,330.971 215.200,331.200 215.200 C 331.460 215.200,331.600 209.867,331.600 200.000 C 331.600 190.133,331.460 184.800,331.200 184.800 C 330.971 184.800,330.800 183.600,330.800 182.000 C 330.800 180.400,330.629 179.200,330.400 179.200 C 330.180 179.200,330.000 178.210,330.000 177.000 C 330.000 175.790,329.820 174.800,329.600 174.800 C 329.380 174.800,329.200 173.900,329.200 172.800 C 329.200 171.700,329.020 170.800,328.800 170.800 C 328.580 170.800,328.400 170.080,328.400 169.200 C 328.400 168.320,328.220 167.600,328.000 167.600 C 327.780 167.600,327.600 166.880,327.600 166.000 C 327.600 165.120,327.420 164.400,327.200 164.400 C 326.980 164.400,326.800 163.871,326.800 163.224 C 326.800 162.577,326.620 161.936,326.400 161.800 C 326.180 161.664,326.000 161.023,326.000 160.376 C 326.000 159.729,325.820 159.200,325.600 159.200 C 325.380 159.200,325.200 158.811,325.200 158.335 C 325.200 157.220,323.905 153.041,323.506 152.867 C 323.338 152.793,323.200 152.309,323.200 151.790 C 323.200 151.272,323.020 150.736,322.800 150.600 C 322.580 150.464,322.400 150.003,322.400 149.576 C 322.400 149.149,322.220 148.800,322.000 148.800 C 321.780 148.800,321.600 148.465,321.600 148.056 C 321.600 147.254,319.195 142.287,318.700 142.067 C 318.535 141.993,318.400 141.588,318.400 141.167 C 318.400 140.745,318.220 140.400,318.000 140.400 C 317.780 140.400,317.600 140.040,317.600 139.600 C 317.600 139.160,317.420 138.800,317.200 138.800 C 316.980 138.800,316.800 138.440,316.800 138.000 C 316.800 137.560,316.620 137.200,316.400 137.200 C 316.180 137.200,316.000 136.840,316.000 136.400 C 316.000 135.960,315.820 135.600,315.600 135.600 C 315.380 135.600,315.200 135.280,315.200 134.888 C 315.200 134.497,314.840 133.917,314.400 133.600 C 313.960 133.283,313.600 132.703,313.600 132.312 C 313.600 131.920,313.420 131.600,313.200 131.600 C 312.980 131.600,312.800 131.280,312.800 130.888 C 312.800 130.497,312.440 129.917,312.000 129.600 C 311.560 129.283,311.200 128.743,311.200 128.400 C 311.200 128.057,310.840 127.517,310.400 127.200 C 309.960 126.883,309.600 126.433,309.600 126.200 C 309.600 125.967,309.240 125.517,308.800 125.200 C 308.360 124.883,308.000 124.311,308.000 123.930 C 308.000 123.548,307.550 122.786,307.000 122.236 C 306.450 121.686,306.000 121.030,306.000 120.779 C 306.000 120.527,305.460 119.817,304.800 119.200 C 304.140 118.583,303.600 117.870,303.600 117.614 C 303.600 117.358,302.700 116.271,301.600 115.200 C 300.500 114.129,299.600 113.068,299.600 112.843 C 299.600 112.617,298.687 111.571,297.572 110.517 C 294.987 108.074,291.926 105.013,289.483 102.428 C 288.429 101.313,287.383 100.400,287.157 100.400 C 286.932 100.400,285.871 99.500,284.800 98.400 C 283.729 97.300,282.642 96.400,282.386 96.400 C 282.130 96.400,281.417 95.860,280.800 95.200 C 280.183 94.540,279.473 94.000,279.221 94.000 C 278.970 94.000,278.314 93.550,277.764 93.000 C 277.214 92.450,276.452 92.000,276.070 92.000 C 275.689 92.000,275.117 91.640,274.800 91.200 C 274.483 90.760,274.033 90.400,273.800 90.400 C 273.567 90.400,273.117 90.040,272.800 89.600 C 272.483 89.160,271.943 88.800,271.600 88.800 C 271.257 88.800,270.717 88.440,270.400 88.000 C 270.083 87.560,269.503 87.200,269.112 87.200 C 268.720 87.200,268.400 87.020,268.400 86.800 C 268.400 86.580,268.080 86.400,267.688 86.400 C 267.297 86.400,266.717 86.040,266.400 85.600 C 266.083 85.160,265.503 84.800,265.112 84.800 C 264.720 84.800,264.400 84.620,264.400 84.400 C 264.400 84.180,264.040 84.000,263.600 84.000 C 263.160 84.000,262.800 83.820,262.800 83.600 C 262.800 83.380,262.440 83.200,262.000 83.200 C 261.560 83.200,261.200 83.020,261.200 82.800 C 261.200 82.580,260.840 82.400,260.400 82.400 C 259.960 82.400,259.600 82.220,259.600 82.000 C 259.600 81.780,259.255 81.600,258.833 81.600 C 258.412 81.600,258.007 81.465,257.933 81.300 C 257.713 80.805,252.746 78.400,251.944 78.400 C 251.535 78.400,251.200 78.220,251.200 78.000 C 251.200 77.780,250.851 77.600,250.424 77.600 C 249.997 77.600,249.536 77.420,249.400 77.200 C 249.264 76.980,248.728 76.800,248.210 76.800 C 247.691 76.800,247.207 76.662,247.133 76.494 C 246.959 76.095,242.780 74.800,241.665 74.800 C 241.189 74.800,240.800 74.620,240.800 74.400 C 240.800 74.180,240.271 74.000,239.624 74.000 C 238.977 74.000,238.336 73.820,238.200 73.600 C 238.064 73.380,237.423 73.200,236.776 73.200 C 236.129 73.200,235.600 73.020,235.600 72.800 C 235.600 72.580,234.880 72.400,234.000 72.400 C 233.120 72.400,232.400 72.220,232.400 72.000 C 232.400 71.780,231.680 71.600,230.800 71.600 C 229.920 71.600,229.200 71.420,229.200 71.200 C 229.200 70.980,228.300 70.800,227.200 70.800 C 226.100 70.800,225.200 70.620,225.200 70.400 C 225.200 70.180,224.210 70.000,223.000 70.000 C 221.790 70.000,220.800 69.820,220.800 69.600 C 220.800 69.371,219.600 69.200,218.000 69.200 C 216.400 69.200,215.200 69.029,215.200 68.800 C 215.200 68.540,209.867 68.400,200.000 68.400 C 190.133 68.400,184.800 68.540,184.800 68.800 M213.200 71.633 C 213.970 71.832,215.209 71.997,215.954 71.998 C 216.698 71.999,217.958 72.166,218.754 72.369 C 219.549 72.571,221.460 72.948,223.000 73.206 C 224.540 73.465,226.340 73.834,227.000 74.028 C 227.660 74.221,229.280 74.642,230.600 74.962 C 241.287 77.553,261.563 85.423,262.333 87.279 C 262.407 87.456,262.624 87.600,262.816 87.600 C 263.008 87.600,264.118 88.165,265.282 88.856 C 266.447 89.547,268.030 90.467,268.800 90.901 C 269.570 91.335,271.886 92.885,273.947 94.345 C 276.008 95.805,278.078 97.267,278.547 97.594 C 294.338 108.585,310.871 129.629,317.990 147.800 C 318.508 149.120,319.051 150.380,319.198 150.600 C 320.124 151.988,323.744 163.945,325.131 170.200 C 326.214 175.082,326.579 177.076,327.601 183.677 C 330.175 200.305,326.465 230.531,320.025 245.400 C 319.834 245.840,319.265 247.280,318.760 248.600 C 311.854 266.657,294.645 288.939,277.827 301.600 C 276.804 302.370,275.749 303.190,275.484 303.422 C 274.900 303.931,270.306 307.139,268.845 308.057 C 261.705 312.544,246.451 320.400,244.879 320.400 C 244.698 320.400,243.805 320.760,242.894 321.200 C 241.984 321.640,240.900 322.000,240.486 322.000 C 240.072 322.000,239.610 322.123,239.459 322.274 C 239.059 322.674,236.317 323.587,235.495 323.594 C 235.107 323.597,234.477 323.762,234.095 323.961 C 233.713 324.160,232.590 324.532,231.600 324.788 C 230.610 325.044,229.247 325.422,228.572 325.627 C 227.896 325.832,226.897 326.000,226.352 326.000 C 225.806 326.000,225.189 326.163,224.980 326.361 C 224.771 326.560,223.790 326.820,222.800 326.938 C 221.810 327.057,218.210 327.530,214.800 327.990 C 208.168 328.885,192.277 328.922,186.400 328.056 C 174.428 326.293,165.045 323.916,156.221 320.409 C 129.086 309.625,103.387 286.850,89.786 261.533 C 86.622 255.645,82.800 247.583,82.800 246.799 C 82.800 246.574,82.641 246.077,82.447 245.695 C 82.112 245.037,81.644 243.928,80.846 241.900 C 80.651 241.405,80.273 240.190,80.007 239.200 C 79.740 238.210,79.360 237.087,79.161 236.705 C 78.962 236.323,78.800 235.659,78.800 235.229 C 78.800 234.799,78.620 234.336,78.400 234.200 C 78.180 234.064,78.000 233.434,78.000 232.800 C 78.000 232.166,77.820 231.536,77.600 231.400 C 77.380 231.264,77.200 230.569,77.200 229.856 C 77.200 229.143,77.038 228.389,76.841 228.180 C 76.644 227.971,76.381 227.080,76.257 226.200 C 76.133 225.320,75.836 223.520,75.598 222.200 C 74.027 213.506,73.359 201.112,73.964 191.863 C 74.626 181.740,75.047 178.771,77.218 168.900 C 77.448 167.855,77.740 166.460,77.868 165.800 C 77.996 165.140,78.230 164.420,78.388 164.200 C 78.546 163.980,78.910 162.900,79.197 161.800 C 79.483 160.700,79.871 159.629,80.059 159.420 C 80.247 159.211,80.400 158.714,80.400 158.315 C 80.400 157.916,80.559 157.277,80.753 156.895 C 81.079 156.254,81.393 155.513,82.361 153.100 C 82.560 152.605,83.127 151.120,83.623 149.800 C 84.801 146.658,89.221 137.801,91.284 134.446 C 92.179 132.991,93.279 131.125,93.730 130.300 C 94.180 129.475,94.695 128.800,94.874 128.800 C 95.053 128.800,95.200 128.564,95.200 128.275 C 95.200 127.987,95.524 127.402,95.919 126.975 C 96.315 126.549,97.400 125.120,98.330 123.800 C 99.261 122.480,100.870 120.320,101.906 119.000 C 104.691 115.452,116.487 103.745,120.400 100.646 C 122.270 99.165,124.117 97.694,124.505 97.376 C 130.904 92.138,147.717 82.777,156.800 79.396 C 157.790 79.027,158.960 78.571,159.400 78.383 C 164.349 76.262,179.619 72.572,187.400 71.618 C 193.897 70.821,210.103 70.830,213.200 71.633 M198.427 105.562 C 197.972 106.201,197.600 106.833,197.600 106.967 C 197.600 108.677,195.699 109.991,193.200 110.008 C 188.957 110.037,181.274 111.289,176.400 112.747 C 169.115 114.927,168.967 114.979,165.082 116.757 C 163.587 117.440,162.258 118.000,162.128 118.000 C 161.920 118.000,157.521 120.198,154.800 121.662 C 146.105 126.340,132.840 137.440,127.551 144.464 C 126.808 145.451,125.351 147.383,124.312 148.756 C 123.274 150.130,121.406 152.997,120.161 155.127 C 118.917 157.257,117.381 159.867,116.749 160.927 C 116.117 161.986,115.600 162.927,115.600 163.017 C 115.600 163.106,115.064 164.350,114.410 165.779 C 111.740 171.607,108.840 180.978,107.966 186.600 C 102.186 223.765,120.231 261.184,153.000 279.983 C 159.307 283.601,169.303 287.491,174.800 288.467 C 180.275 289.439,184.389 289.988,189.400 290.418 C 195.624 290.951,195.079 290.667,197.610 294.700 C 199.584 297.845,199.390 297.889,202.687 293.553 L 205.460 289.905 208.630 289.756 C 219.988 289.221,233.061 286.583,240.327 283.359 C 245.338 281.135,251.304 278.016,251.533 277.500 C 251.607 277.335,251.842 277.200,252.055 277.200 C 252.441 277.200,257.216 274.099,257.600 273.600 C 257.710 273.456,258.503 272.867,259.362 272.291 C 263.660 269.405,274.162 258.425,278.005 252.800 C 278.531 252.030,279.085 251.310,279.235 251.200 C 279.634 250.908,282.043 246.802,284.924 241.500 C 286.281 239.002,288.957 232.640,290.098 229.200 C 291.906 223.747,292.598 220.867,293.982 213.033 C 295.746 203.046,293.382 180.904,289.622 172.200 C 289.432 171.760,288.682 169.870,287.956 168.000 C 279.370 145.892,258.849 125.412,236.637 116.781 C 234.857 116.090,233.040 115.373,232.600 115.188 C 231.508 114.730,227.393 113.413,225.200 112.821 C 221.812 111.905,220.597 111.635,217.800 111.177 C 216.260 110.924,214.136 110.557,213.080 110.359 C 212.024 110.162,209.904 110.000,208.367 110.000 C 204.655 110.000,203.332 109.364,201.400 106.651 C 199.542 104.042,199.516 104.033,198.427 105.562 M193.969 112.700 C 189.806 119.670,187.906 122.300,187.172 122.108 C 186.406 121.908,182.329 122.498,179.500 123.218 C 175.450 124.249,174.366 124.585,171.400 125.729 C 164.732 128.300,156.716 132.846,152.666 136.352 C 144.630 143.310,141.064 147.884,136.384 157.238 C 133.623 162.757,132.933 164.689,131.540 170.800 C 130.180 176.769,131.794 195.470,134.048 199.856 C 134.506 200.747,134.419 202.161,133.598 207.200 C 131.670 219.028,136.145 232.631,145.045 242.000 C 146.612 243.650,148.029 245.432,148.194 245.961 C 148.358 246.489,149.012 247.802,149.646 248.878 C 150.281 249.955,150.800 250.915,150.800 251.013 C 150.800 251.111,151.059 251.508,151.375 251.895 C 161.346 264.116,166.794 267.937,179.763 271.809 C 182.824 272.723,183.363 273.292,188.925 281.494 C 194.296 289.414,194.350 289.565,191.700 289.341 C 184.462 288.727,175.507 287.365,172.400 286.406 C 171.850 286.236,170.050 285.683,168.400 285.176 C 166.750 284.670,165.229 284.108,165.020 283.928 C 164.811 283.748,164.402 283.600,164.111 283.600 C 163.821 283.600,162.039 282.880,160.152 282.000 C 158.265 281.120,156.653 280.400,156.571 280.400 C 156.104 280.400,147.312 274.706,144.600 272.648 C 131.376 262.611,121.041 249.605,115.469 235.987 C 115.067 235.004,114.581 233.840,114.390 233.400 C 113.946 232.376,111.847 225.893,111.282 223.800 C 108.125 212.095,107.523 198.307,109.667 186.800 C 110.394 182.898,110.891 180.619,111.194 179.800 C 111.832 178.071,112.400 176.119,112.400 175.652 C 112.400 175.382,112.760 174.416,113.200 173.506 C 113.640 172.595,114.000 171.611,114.000 171.319 C 114.000 171.028,114.159 170.477,114.353 170.095 C 114.548 169.713,114.891 168.950,115.115 168.400 C 122.102 151.298,136.492 134.527,152.444 124.895 C 155.958 122.773,164.045 118.829,167.400 117.600 C 167.840 117.439,168.650 117.120,169.200 116.891 C 173.252 115.204,175.785 114.441,181.600 113.159 C 184.545 112.510,189.951 111.701,194.333 111.254 C 194.700 111.217,194.588 111.664,193.969 112.700 M213.000 112.271 C 218.040 113.012,220.181 113.413,222.200 113.993 C 223.806 114.455,225.646 114.935,227.706 115.430 C 228.314 115.576,228.910 115.854,229.030 116.048 C 229.149 116.241,229.573 116.400,229.970 116.400 C 232.688 116.400,246.689 123.361,253.000 127.850 C 256.164 130.101,258.951 132.145,259.200 132.398 C 259.310 132.510,260.739 133.771,262.375 135.200 C 267.889 140.019,272.305 144.922,276.296 150.657 C 281.169 157.657,282.871 160.681,286.540 168.853 C 292.959 183.148,294.784 205.099,290.843 220.600 C 290.235 222.991,289.668 225.265,289.370 226.506 C 289.224 227.114,288.946 227.710,288.752 227.830 C 288.559 227.949,288.400 228.476,288.400 229.000 C 288.400 229.524,288.220 230.064,288.000 230.200 C 287.780 230.336,287.600 230.709,287.600 231.028 C 287.600 233.259,276.888 253.166,274.808 254.800 C 274.668 254.910,274.294 255.376,273.977 255.835 C 271.312 259.693,259.765 271.200,258.558 271.200 C 258.288 271.200,258.007 271.349,257.933 271.530 C 257.860 271.712,256.360 272.828,254.600 274.010 C 243.226 281.651,233.336 285.481,220.000 287.413 C 219.230 287.524,217.430 287.792,216.000 288.008 C 214.570 288.225,212.140 288.469,210.600 288.551 C 209.060 288.634,207.485 288.833,207.100 288.994 C 205.936 289.479,206.260 288.190,207.880 285.896 C 209.296 283.889,210.306 282.433,214.602 276.200 C 216.738 273.101,217.846 272.022,218.905 272.009 C 219.293 272.004,219.923 271.842,220.305 271.649 C 220.687 271.456,221.720 271.084,222.600 270.823 C 228.423 269.092,239.383 262.544,242.162 259.135 C 242.581 258.621,243.628 257.390,244.487 256.400 C 245.347 255.410,246.174 254.420,246.325 254.200 C 246.476 253.979,247.140 253.080,247.800 252.201 C 249.076 250.502,251.600 246.445,251.600 246.093 C 251.600 245.977,253.297 244.154,255.371 242.041 C 262.400 234.881,265.381 229.467,267.565 219.894 C 268.410 216.192,268.064 208.134,266.840 203.000 C 266.631 202.124,266.817 201.219,267.531 199.645 C 269.392 195.544,270.509 189.895,271.046 181.876 C 271.420 176.303,270.361 168.838,268.313 162.600 C 266.679 157.621,261.835 148.854,259.143 146.000 C 258.624 145.450,257.480 144.176,256.600 143.168 C 255.720 142.160,253.560 140.095,251.800 138.578 C 250.040 137.061,248.510 135.726,248.400 135.610 C 247.852 135.034,245.581 133.600,245.216 133.600 C 244.987 133.600,244.800 133.453,244.800 133.274 C 244.800 132.817,238.430 129.413,233.600 127.289 C 227.929 124.795,217.186 122.006,213.209 121.995 L 211.400 121.990 209.438 118.895 C 208.359 117.193,206.874 114.858,206.138 113.706 C 205.402 112.555,204.800 111.528,204.800 111.425 C 204.800 111.194,207.733 111.497,213.000 112.271 M202.054 115.100 C 203.483 117.025,205.883 120.400,207.386 122.600 C 213.115 130.981,213.986 131.967,215.676 131.987 C 217.160 132.005,217.397 131.400,216.436 130.050 C 214.217 126.935,212.699 123.479,213.675 123.764 C 214.184 123.913,215.590 124.189,216.800 124.377 C 242.169 128.331,262.736 146.081,268.259 168.790 C 269.067 172.111,269.240 188.920,268.475 189.685 C 268.214 189.946,268.000 190.876,268.000 191.752 C 268.000 193.293,267.472 195.467,266.751 196.895 C 266.558 197.277,266.400 197.862,266.400 198.195 C 266.400 199.496,265.670 198.683,264.619 196.210 C 262.262 190.664,256.779 184.188,251.273 180.450 C 246.941 177.507,244.722 176.352,240.536 174.859 C 236.910 173.565,236.843 173.473,234.817 167.000 C 232.431 159.381,228.566 152.729,224.010 148.400 C 223.826 148.225,222.832 147.059,218.400 141.818 C 217.850 141.168,216.673 139.818,215.785 138.818 C 214.897 137.818,213.569 136.280,212.833 135.400 C 211.216 133.464,205.879 127.555,202.637 124.111 C 200.535 121.878,199.201 121.020,199.200 121.900 C 199.199 122.065,198.794 122.679,198.300 123.264 C 197.805 123.849,196.825 125.019,196.122 125.864 C 195.418 126.709,193.618 128.784,192.122 130.476 C 172.789 152.322,167.909 158.838,165.218 166.400 C 164.944 167.170,164.576 168.160,164.402 168.600 C 164.227 169.040,163.820 170.296,163.497 171.392 C 162.964 173.197,162.774 173.411,161.464 173.683 C 152.685 175.507,140.336 186.338,136.620 195.474 C 135.550 198.104,134.932 198.548,134.595 196.928 C 134.466 196.308,134.198 195.170,133.999 194.400 C 132.697 189.353,131.955 180.880,132.440 176.600 C 133.119 170.607,134.724 163.608,135.646 162.620 C 135.840 162.411,136.000 161.994,136.000 161.694 C 136.000 160.719,139.533 154.069,142.000 150.401 C 144.069 147.322,145.533 145.557,149.822 140.967 C 156.986 133.299,171.763 125.787,182.400 124.405 C 184.050 124.191,185.901 123.900,186.514 123.759 C 187.601 123.508,183.875 130.088,182.422 130.986 C 181.673 131.449,181.969 132.400,182.862 132.400 C 184.396 132.400,187.018 129.131,195.461 116.700 C 197.366 113.895,199.044 111.600,199.190 111.600 C 199.337 111.600,200.625 113.175,202.054 115.100 M202.374 150.325 C 213.404 161.953,220.025 169.118,221.391 170.907 C 225.713 176.568,227.373 181.361,227.378 188.200 L 227.382 193.400 225.837 196.485 C 224.159 199.838,219.306 205.433,218.348 205.119 C 217.611 204.878,211.069 196.087,203.000 184.498 C 199.970 180.146,200.152 180.159,197.501 184.089 C 190.493 194.477,182.162 205.600,181.391 205.600 C 180.236 205.600,175.559 200.402,174.307 197.727 C 173.172 195.301,172.867 194.280,172.138 190.462 C 171.860 189.003,172.639 182.624,173.232 181.505 C 173.434 181.123,173.600 180.527,173.600 180.180 C 173.600 177.201,178.177 171.000,187.165 161.800 C 191.034 157.840,195.445 153.205,196.967 151.500 C 200.235 147.840,200.053 147.879,202.374 150.325 M244.985 189.793 C 253.839 196.534,258.334 208.120,256.246 218.814 C 253.864 231.012,242.461 242.000,232.185 242.000 L 229.703 242.000 230.438 238.900 C 232.276 231.147,230.852 223.501,226.346 216.928 C 224.860 214.760,224.686 215.170,228.671 211.445 C 232.057 208.281,235.329 203.908,236.366 201.163 C 236.649 200.413,237.023 199.440,237.196 199.000 C 237.887 197.248,238.353 194.849,238.595 191.800 C 238.734 190.040,238.942 188.102,239.057 187.493 L 239.267 186.386 241.333 187.486 C 242.470 188.091,244.113 189.129,244.985 189.793 M160.801 188.300 C 160.802 193.591,163.141 201.245,166.046 205.466 C 167.357 207.373,173.825 214.000,174.374 214.000 C 175.343 214.000,175.057 215.459,173.683 217.526 C 168.928 224.680,167.832 232.285,170.346 240.670 C 170.956 242.703,169.779 242.914,165.000 241.628 C 156.553 239.355,150.105 233.384,146.404 224.410 C 140.907 211.078,146.594 193.425,158.262 187.600 C 160.484 186.491,160.800 186.578,160.801 188.300 M203.238 203.900 C 208.276 209.792,209.820 211.736,210.745 213.350 C 211.662 214.952,211.698 215.683,210.808 214.610 C 209.888 213.501,208.964 213.967,205.687 217.187 C 201.279 221.518,198.754 221.955,194.919 219.048 C 193.864 218.248,192.235 217.020,191.300 216.319 C 188.806 214.451,189.391 213.170,196.997 203.833 C 200.365 199.698,199.638 199.690,203.238 203.900 M185.614 224.500 C 191.968 229.933,193.611 230.835,198.440 231.542 C 203.662 232.306,206.811 231.019,212.208 225.911 C 216.528 221.822,216.664 221.813,218.482 225.506 C 223.034 234.752,216.722 247.755,206.000 251.219 C 203.820 251.923,195.380 252.015,193.960 251.351 C 190.083 249.536,188.992 248.872,187.065 247.155 C 180.721 241.501,178.147 231.417,181.333 224.700 C 182.659 221.903,182.581 221.906,185.614 224.500 M153.305 248.265 C 159.468 251.375,160.865 251.670,168.957 251.569 L 175.219 251.491 177.731 253.904 C 190.254 265.929,213.298 265.111,223.949 252.262 C 224.419 251.695,225.445 251.600,231.121 251.600 C 234.763 251.600,238.296 251.432,238.972 251.227 C 239.647 251.022,241.010 250.624,242.000 250.342 C 242.990 250.061,245.122 249.136,246.739 248.287 C 250.291 246.422,250.586 246.561,248.450 249.095 C 242.958 255.608,231.459 262.321,221.000 265.121 C 215.820 266.508,209.612 267.309,208.167 266.777 C 206.905 266.313,205.698 267.799,201.249 275.294 C 199.843 277.662,199.169 277.149,194.600 270.233 L 192.200 266.600 187.800 266.509 C 182.894 266.407,180.138 265.876,174.200 263.890 C 168.644 262.032,159.942 257.176,157.200 254.402 C 157.090 254.291,155.607 252.971,153.905 251.468 C 151.101 248.994,148.784 246.400,149.378 246.400 C 149.506 246.400,151.273 247.239,153.305 248.265 M158.758 270.265 C 157.717 270.543,157.040 272.154,157.558 273.121 C 157.799 273.573,157.888 274.227,157.754 274.576 C 157.403 275.492,158.322 276.400,159.600 276.400 C 161.079 276.400,161.614 275.646,161.831 273.257 C 162.064 270.699,161.001 269.664,158.758 270.265 M237.436 270.760 C 236.120 272.215,237.860 276.400,239.782 276.400 C 241.136 276.400,242.105 274.822,241.835 273.056 C 241.420 270.338,238.974 269.061,237.436 270.760 M239.204 272.595 C 238.697 273.206,238.743 273.251,240.287 273.668 C 240.590 273.750,240.647 274.005,240.437 274.343 C 240.225 274.684,239.784 274.785,239.250 274.616 C 238.182 274.277,238.007 272.000,239.049 272.000 C 239.578 272.000,239.607 272.110,239.204 272.595 M160.167 273.443 C 160.951 273.743,161.000 275.038,160.239 275.330 C 159.406 275.649,158.224 274.635,158.522 273.858 C 158.793 273.152,159.166 273.058,160.167 273.443 " stroke="none" fill="#dfac5c" fill-rule="evenodd"></path><path id="path1" d="M194.200 71.054 C 185.015 71.404,166.666 75.269,159.400 78.383 C 158.960 78.571,157.790 79.027,156.800 79.396 C 147.717 82.777,130.904 92.138,124.505 97.376 C 124.117 97.694,122.270 99.165,120.400 100.646 C 116.487 103.745,104.691 115.452,101.906 119.000 C 100.870 120.320,99.261 122.480,98.330 123.800 C 97.400 125.120,96.315 126.549,95.919 126.975 C 95.524 127.402,95.200 127.987,95.200 128.275 C 95.200 128.564,95.053 128.800,94.874 128.800 C 94.695 128.800,94.180 129.475,93.730 130.300 C 93.279 131.125,92.179 132.991,91.284 134.446 C 89.221 137.801,84.801 146.658,83.623 149.800 C 83.127 151.120,82.560 152.605,82.361 153.100 C 81.393 155.513,81.079 156.254,80.753 156.895 C 80.559 157.277,80.400 157.916,80.400 158.315 C 80.400 158.714,80.247 159.211,80.059 159.420 C 79.871 159.629,79.483 160.700,79.197 161.800 C 78.910 162.900,78.546 163.980,78.388 164.200 C 78.230 164.420,77.996 165.140,77.868 165.800 C 77.740 166.460,77.448 167.855,77.218 168.900 C 75.047 178.771,74.626 181.740,73.964 191.863 C 73.359 201.112,74.027 213.506,75.598 222.200 C 75.836 223.520,76.133 225.320,76.257 226.200 C 76.381 227.080,76.644 227.971,76.841 228.180 C 77.038 228.389,77.200 229.143,77.200 229.856 C 77.200 230.569,77.380 231.264,77.600 231.400 C 77.820 231.536,78.000 232.166,78.000 232.800 C 78.000 233.434,78.180 234.064,78.400 234.200 C 78.620 234.336,78.800 234.799,78.800 235.229 C 78.800 235.659,78.962 236.323,79.161 236.705 C 79.360 237.087,79.740 238.210,80.007 239.200 C 80.273 240.190,80.651 241.405,80.846 241.900 C 81.644 243.928,82.112 245.037,82.447 245.695 C 82.641 246.077,82.800 246.574,82.800 246.799 C 82.800 247.583,86.622 255.645,89.786 261.533 C 99.752 280.083,117.294 298.481,136.200 310.210 C 151.898 319.949,166.434 325.116,186.400 328.056 C 192.277 328.922,208.168 328.885,214.800 327.990 C 218.210 327.530,221.810 327.057,222.800 326.938 C 223.790 326.820,224.771 326.560,224.980 326.361 C 225.189 326.163,225.806 326.000,226.352 326.000 C 226.897 326.000,227.896 325.832,228.572 325.627 C 229.247 325.422,230.610 325.044,231.600 324.788 C 232.590 324.532,233.713 324.160,234.095 323.961 C 234.477 323.762,235.107 323.597,235.495 323.594 C 236.317 323.587,239.059 322.674,239.459 322.274 C 239.610 322.123,240.072 322.000,240.486 322.000 C 240.900 322.000,241.984 321.640,242.894 321.200 C 243.805 320.760,244.698 320.400,244.879 320.400 C 246.451 320.400,261.705 312.544,268.845 308.057 C 270.306 307.139,274.900 303.931,275.484 303.422 C 275.749 303.190,276.804 302.370,277.827 301.600 C 294.645 288.939,311.854 266.657,318.760 248.600 C 319.265 247.280,319.834 245.840,320.025 245.400 C 326.465 230.531,330.175 200.305,327.601 183.677 C 326.579 177.076,326.214 175.082,325.131 170.200 C 323.744 163.945,320.124 151.988,319.198 150.600 C 319.051 150.380,318.508 149.120,317.990 147.800 C 310.871 129.629,294.338 108.585,278.547 97.594 C 278.078 97.267,276.008 95.805,273.947 94.345 C 271.886 92.885,269.570 91.335,268.800 90.901 C 268.030 90.467,266.447 89.547,265.282 88.856 C 264.118 88.165,263.008 87.600,262.816 87.600 C 262.624 87.600,262.407 87.456,262.333 87.279 C 261.563 85.423,241.287 77.553,230.600 74.962 C 229.280 74.642,227.660 74.221,227.000 74.028 C 226.340 73.834,224.540 73.465,223.000 73.206 C 221.460 72.948,219.549 72.571,218.754 72.369 C 217.958 72.166,216.698 71.999,215.954 71.998 C 215.209 71.997,213.970 71.832,213.200 71.633 C 211.669 71.236,199.304 70.859,194.200 71.054 M201.400 106.651 C 203.332 109.364,204.655 110.000,208.367 110.000 C 209.904 110.000,212.024 110.162,213.080 110.359 C 214.136 110.557,216.260 110.924,217.800 111.177 C 220.597 111.635,221.812 111.905,225.200 112.821 C 227.393 113.413,231.508 114.730,232.600 115.188 C 233.040 115.373,234.857 116.090,236.637 116.781 C 258.849 125.412,279.370 145.892,287.956 168.000 C 288.682 169.870,289.432 171.760,289.622 172.200 C 293.382 180.904,295.746 203.046,293.982 213.033 C 292.598 220.867,291.906 223.747,290.098 229.200 C 288.957 232.640,286.281 239.002,284.924 241.500 C 282.043 246.802,279.634 250.908,279.235 251.200 C 279.085 251.310,278.531 252.030,278.005 252.800 C 274.162 258.425,263.660 269.405,259.362 272.291 C 258.503 272.867,257.710 273.456,257.600 273.600 C 257.216 274.099,252.441 277.200,252.055 277.200 C 251.842 277.200,251.607 277.335,251.533 277.500 C 251.304 278.016,245.338 281.135,240.327 283.359 C 233.061 286.583,219.988 289.221,208.630 289.756 L 205.460 289.905 202.687 293.553 C 199.390 297.889,199.584 297.845,197.610 294.700 C 195.079 290.667,195.624 290.951,189.400 290.418 C 184.389 289.988,180.275 289.439,174.800 288.467 C 161.662 286.135,144.439 276.219,132.903 264.344 C 112.806 243.657,103.570 214.864,107.966 186.600 C 108.840 180.978,111.740 171.607,114.410 165.779 C 115.064 164.350,115.600 163.106,115.600 163.017 C 115.600 162.927,116.117 161.986,116.749 160.927 C 117.381 159.867,118.917 157.257,120.161 155.127 C 121.406 152.997,123.274 150.130,124.312 148.756 C 125.351 147.383,126.808 145.451,127.551 144.464 C 132.840 137.440,146.105 126.340,154.800 121.662 C 157.521 120.198,161.920 118.000,162.128 118.000 C 162.258 118.000,163.587 117.440,165.082 116.757 C 168.967 114.979,169.115 114.927,176.400 112.747 C 181.274 111.289,188.957 110.037,193.200 110.008 C 195.699 109.991,197.600 108.677,197.600 106.967 C 197.600 106.570,199.231 104.400,199.527 104.402 C 199.677 104.403,200.520 105.415,201.400 106.651 M191.000 111.645 C 185.221 112.340,181.076 113.147,175.200 114.722 C 173.880 115.076,171.449 115.955,169.200 116.891 C 168.650 117.120,167.840 117.439,167.400 117.600 C 164.045 118.829,155.958 122.773,152.444 124.895 C 139.689 132.597,127.870 144.840,119.905 158.600 C 119.120 159.958,115.737 166.878,115.115 168.400 C 114.891 168.950,114.548 169.713,114.353 170.095 C 114.159 170.477,114.000 171.028,114.000 171.319 C 114.000 171.611,113.640 172.595,113.200 173.506 C 112.760 174.416,112.400 175.382,112.400 175.652 C 112.400 176.119,111.832 178.071,111.194 179.800 C 110.891 180.619,110.394 182.898,109.667 186.800 C 107.523 198.307,108.125 212.095,111.282 223.800 C 111.847 225.893,113.946 232.376,114.390 233.400 C 114.581 233.840,115.067 235.004,115.469 235.987 C 121.041 249.605,131.376 262.611,144.600 272.648 C 147.312 274.706,156.104 280.400,156.571 280.400 C 156.653 280.400,158.265 281.120,160.152 282.000 C 162.039 282.880,163.821 283.600,164.111 283.600 C 164.402 283.600,164.811 283.748,165.020 283.928 C 165.229 284.108,166.750 284.670,168.400 285.176 C 170.050 285.683,171.850 286.236,172.400 286.406 C 175.507 287.365,184.462 288.727,191.700 289.341 C 194.350 289.565,194.296 289.414,188.925 281.494 C 183.363 273.292,182.824 272.723,179.763 271.809 C 166.794 267.937,161.346 264.116,151.375 251.895 C 151.059 251.508,150.800 251.111,150.800 251.013 C 150.800 250.915,150.281 249.955,149.646 248.878 C 149.012 247.802,148.358 246.489,148.194 245.961 C 148.029 245.432,146.612 243.650,145.045 242.000 C 136.145 232.631,131.670 219.028,133.598 207.200 C 134.419 202.161,134.506 200.747,134.048 199.856 C 131.794 195.470,130.180 176.769,131.540 170.800 C 132.933 164.689,133.623 162.757,136.384 157.238 C 141.064 147.884,144.630 143.310,152.666 136.352 C 154.964 134.362,161.171 130.401,164.680 128.684 C 171.471 125.363,177.031 123.518,183.703 122.372 C 185.190 122.117,186.751 121.998,187.172 122.108 C 187.787 122.269,188.442 121.512,190.505 118.254 C 194.600 111.790,194.926 111.194,194.333 111.254 C 194.040 111.284,192.540 111.460,191.000 111.645 M204.800 111.425 C 204.800 111.528,205.402 112.555,206.138 113.706 C 206.874 114.858,208.359 117.193,209.438 118.895 L 211.400 121.990 213.209 121.995 C 217.186 122.006,227.929 124.795,233.600 127.289 C 238.430 129.413,244.800 132.817,244.800 133.274 C 244.800 133.453,244.987 133.600,245.216 133.600 C 245.581 133.600,247.852 135.034,248.400 135.610 C 248.510 135.726,250.040 137.061,251.800 138.578 C 253.560 140.095,255.720 142.160,256.600 143.168 C 257.480 144.176,258.624 145.450,259.143 146.000 C 261.835 148.854,266.679 157.621,268.313 162.600 C 270.361 168.838,271.420 176.303,271.046 181.876 C 270.509 189.895,269.392 195.544,267.531 199.645 C 266.817 201.219,266.631 202.124,266.840 203.000 C 268.064 208.134,268.410 216.192,267.565 219.894 C 265.381 229.467,262.400 234.881,255.371 242.041 C 253.297 244.154,251.600 245.977,251.600 246.093 C 251.600 246.445,249.076 250.502,247.800 252.201 C 247.140 253.080,246.476 253.979,246.325 254.200 C 246.174 254.420,245.347 255.410,244.487 256.400 C 243.628 257.390,242.581 258.621,242.162 259.135 C 239.383 262.544,228.423 269.092,222.600 270.823 C 221.720 271.084,220.687 271.456,220.305 271.649 C 219.923 271.842,219.293 272.004,218.905 272.009 C 217.846 272.022,216.738 273.101,214.602 276.200 C 210.306 282.433,209.296 283.889,207.880 285.896 C 206.260 288.190,205.936 289.479,207.100 288.994 C 207.485 288.833,209.060 288.634,210.600 288.551 C 212.140 288.469,214.570 288.225,216.000 288.008 C 217.430 287.792,219.230 287.524,220.000 287.413 C 233.336 285.481,243.226 281.651,254.600 274.010 C 256.360 272.828,257.860 271.712,257.933 271.530 C 258.007 271.349,258.288 271.200,258.558 271.200 C 259.765 271.200,271.312 259.693,273.977 255.835 C 274.294 255.376,274.668 254.910,274.808 254.800 C 276.888 253.166,287.600 233.259,287.600 231.028 C 287.600 230.709,287.780 230.336,288.000 230.200 C 288.220 230.064,288.400 229.524,288.400 229.000 C 288.400 228.476,288.559 227.949,288.752 227.830 C 288.946 227.710,289.224 227.114,289.370 226.506 C 289.668 225.265,290.235 222.991,290.843 220.600 C 294.784 205.099,292.959 183.148,286.540 168.853 C 282.871 160.681,281.169 157.657,276.296 150.657 C 272.305 144.922,267.889 140.019,262.375 135.200 C 260.739 133.771,259.310 132.510,259.200 132.398 C 258.951 132.145,256.164 130.101,253.000 127.850 C 246.689 123.361,232.688 116.400,229.970 116.400 C 229.573 116.400,229.149 116.241,229.030 116.048 C 228.910 115.854,228.314 115.576,227.706 115.430 C 225.646 114.935,223.806 114.455,222.200 113.993 C 218.570 112.950,204.800 110.917,204.800 111.425 M195.461 116.700 C 187.018 129.131,184.396 132.400,182.862 132.400 C 181.969 132.400,181.673 131.449,182.422 130.986 C 183.875 130.088,187.601 123.508,186.514 123.759 C 185.901 123.900,184.050 124.191,182.400 124.405 C 171.763 125.787,156.986 133.299,149.822 140.967 C 145.533 145.557,144.069 147.322,142.000 150.401 C 139.533 154.069,136.000 160.719,136.000 161.694 C 136.000 161.994,135.840 162.411,135.646 162.620 C 134.724 163.608,133.119 170.607,132.440 176.600 C 131.955 180.880,132.697 189.353,133.999 194.400 C 134.198 195.170,134.466 196.308,134.595 196.928 C 134.932 198.548,135.550 198.104,136.620 195.474 C 140.336 186.338,152.685 175.507,161.464 173.683 C 162.774 173.411,162.964 173.197,163.497 171.392 C 163.820 170.296,164.227 169.040,164.402 168.600 C 164.576 168.160,164.944 167.170,165.218 166.400 C 167.909 158.838,172.789 152.322,192.122 130.476 C 193.618 128.784,195.418 126.709,196.122 125.864 C 196.825 125.019,197.805 123.849,198.300 123.264 C 198.794 122.679,199.199 122.065,199.200 121.900 C 199.201 121.020,200.535 121.878,202.637 124.111 C 205.879 127.555,211.216 133.464,212.833 135.400 C 213.569 136.280,214.897 137.818,215.785 138.818 C 216.673 139.818,217.850 141.168,218.400 141.818 C 222.832 147.059,223.826 148.225,224.010 148.400 C 226.198 150.479,230.101 155.874,231.678 159.000 C 233.213 162.042,233.465 162.684,234.817 167.000 C 236.843 173.473,236.910 173.565,240.536 174.859 C 251.271 178.689,260.741 187.085,264.619 196.210 C 265.670 198.683,266.400 199.496,266.400 198.195 C 266.400 197.862,266.558 197.277,266.751 196.895 C 267.472 195.467,268.000 193.293,268.000 191.752 C 268.000 190.876,268.214 189.946,268.475 189.685 C 269.240 188.920,269.067 172.111,268.259 168.790 C 262.736 146.081,242.169 128.331,216.800 124.377 C 215.590 124.189,214.184 123.913,213.675 123.764 C 212.699 123.479,214.217 126.935,216.436 130.050 C 217.397 131.400,217.160 132.005,215.676 131.987 C 213.986 131.967,213.115 130.981,207.386 122.600 C 203.733 117.255,199.519 111.600,199.190 111.600 C 199.044 111.600,197.366 113.895,195.461 116.700 M196.967 151.500 C 195.445 153.205,191.034 157.840,187.165 161.800 C 178.177 171.000,173.600 177.201,173.600 180.180 C 173.600 180.527,173.434 181.123,173.232 181.505 C 172.639 182.624,171.860 189.003,172.138 190.462 C 172.867 194.280,173.172 195.301,174.307 197.727 C 175.559 200.402,180.236 205.600,181.391 205.600 C 182.162 205.600,190.493 194.477,197.501 184.089 C 200.152 180.159,199.970 180.146,203.000 184.498 C 211.069 196.087,217.611 204.878,218.348 205.119 C 219.306 205.433,224.159 199.838,225.837 196.485 L 227.382 193.400 227.378 188.200 C 227.373 181.361,225.713 176.568,221.391 170.907 C 220.025 169.118,213.404 161.953,202.374 150.325 C 200.053 147.879,200.235 147.840,196.967 151.500 M239.057 187.493 C 238.942 188.102,238.734 190.040,238.595 191.800 C 238.353 194.849,237.887 197.248,237.196 199.000 C 237.023 199.440,236.649 200.413,236.366 201.163 C 235.329 203.908,232.057 208.281,228.671 211.445 C 224.686 215.170,224.860 214.760,226.346 216.928 C 230.852 223.501,232.276 231.147,230.438 238.900 L 229.703 242.000 232.185 242.000 C 242.461 242.000,253.864 231.012,256.246 218.814 C 258.645 206.532,252.376 193.364,241.333 187.486 L 239.267 186.386 239.057 187.493 M158.262 187.600 C 146.594 193.425,140.907 211.078,146.404 224.410 C 150.105 233.384,156.553 239.355,165.000 241.628 C 169.779 242.914,170.956 242.703,170.346 240.670 C 167.832 232.285,168.928 224.680,173.683 217.526 C 175.057 215.459,175.343 214.000,174.374 214.000 C 173.825 214.000,167.357 207.373,166.046 205.466 C 163.141 201.245,160.802 193.591,160.801 188.300 C 160.800 186.578,160.484 186.491,158.262 187.600 M196.997 203.833 C 189.391 213.170,188.806 214.451,191.300 216.319 C 192.235 217.020,193.864 218.248,194.919 219.048 C 198.754 221.955,201.279 221.518,205.687 217.187 C 208.964 213.967,209.888 213.501,210.808 214.610 C 211.698 215.683,211.662 214.952,210.745 213.350 C 209.820 211.736,208.276 209.792,203.238 203.900 C 199.638 199.690,200.365 199.698,196.997 203.833 M181.333 224.700 C 178.147 231.417,180.721 241.501,187.065 247.155 C 188.992 248.872,190.083 249.536,193.960 251.351 C 195.380 252.015,203.820 251.923,206.000 251.219 C 216.722 247.755,223.034 234.752,218.482 225.506 C 216.664 221.813,216.528 221.822,212.208 225.911 C 206.811 231.019,203.662 232.306,198.440 231.542 C 193.611 230.835,191.968 229.933,185.614 224.500 C 182.581 221.906,182.659 221.903,181.333 224.700 M149.977 247.568 C 150.435 248.211,152.202 249.966,153.905 251.468 C 155.607 252.971,157.090 254.291,157.200 254.402 C 159.942 257.176,168.644 262.032,174.200 263.890 C 180.138 265.876,182.894 266.407,187.800 266.509 L 192.200 266.600 194.600 270.233 C 199.169 277.149,199.843 277.662,201.249 275.294 C 205.698 267.799,206.905 266.313,208.167 266.777 C 209.612 267.309,215.820 266.508,221.000 265.121 C 231.459 262.321,242.958 255.608,248.450 249.095 C 250.586 246.561,250.291 246.422,246.739 248.287 C 245.122 249.136,242.990 250.061,242.000 250.342 C 241.010 250.624,239.647 251.022,238.972 251.227 C 238.296 251.432,234.763 251.600,231.121 251.600 C 225.445 251.600,224.419 251.695,223.949 252.262 C 213.298 265.111,190.254 265.929,177.731 253.904 L 175.219 251.491 168.957 251.569 C 160.865 251.670,159.468 251.375,153.305 248.265 C 148.951 246.067,148.901 246.057,149.977 247.568 M161.118 270.627 C 162.109 271.322,162.147 274.659,161.176 275.829 C 160.092 277.135,157.181 276.069,157.754 274.576 C 157.888 274.227,157.799 273.573,157.558 273.121 C 156.824 271.749,157.915 270.260,159.811 270.046 C 160.037 270.021,160.625 270.282,161.118 270.627 M240.747 270.700 C 242.031 271.776,242.309 274.491,241.244 275.556 C 240.158 276.642,239.386 276.622,238.241 275.477 C 235.432 272.668,237.772 268.207,240.747 270.700 M238.400 273.173 C 238.400 274.500,239.829 275.321,240.437 274.343 C 240.647 274.005,240.590 273.750,240.287 273.668 C 238.743 273.251,238.697 273.206,239.204 272.595 C 239.607 272.110,239.578 272.000,239.049 272.000 C 238.598 272.000,238.400 272.358,238.400 273.173 M158.522 273.858 C 158.224 274.635,159.406 275.649,160.239 275.330 C 161.000 275.038,160.951 273.743,160.167 273.443 C 159.166 273.058,158.793 273.152,158.522 273.858 M119.063 303.420 C 119.186 303.740,119.057 304.000,118.776 304.000 C 118.496 304.000,118.361 304.094,118.476 304.209 C 118.758 304.492,120.000 303.995,120.000 303.600 C 120.000 303.427,119.739 303.186,119.420 303.063 C 119.033 302.915,118.915 303.033,119.063 303.420 M126.400 309.130 C 126.400 309.312,126.879 309.897,127.463 310.430 L 128.527 311.400 127.588 310.100 C 126.612 308.748,126.400 308.575,126.400 309.130 " stroke="none" fill="#050505" fill-rule="evenodd"></path></g></svg>