<?xml version="1.0" standalone="no"?>
<!DOCTYPE svg PUBLIC "-//W3C//DTD SVG 20010904//EN"
 "http://www.w3.org/TR/2001/REC-SVG-20010904/DTD/svg10.dtd">
<svg version="1.0" xmlns="http://www.w3.org/2000/svg"
 width="512.000000pt" height="512.000000pt" viewBox="0 0 512.000000 512.000000"
 preserveAspectRatio="xMidYMid meet">

<g transform="translate(0.000000,512.000000) scale(0.100000,-0.100000)"
fill="#000000" stroke="none">
<path d="M2525 5008 c-84 -177 -277 -283 -565 -310 -133 -12 -214 -31 -360
-83 -102 -37 -107 -38 -183 -29 -74 9 -78 8 -81 -11 -21 -119 -29 -142 -73
-217 -86 -145 -287 -331 -382 -355 -14 -3 -35 -12 -46 -19 -57 -35 -252 -45
-364 -19 -35 9 -66 13 -69 10 -3 -3 17 -29 45 -58 107 -111 136 -185 137 -347
1 -133 -15 -198 -91 -358 -64 -136 -88 -203 -112 -314 -11 -53 -30 -121 -41
-150 -24 -66 -94 -147 -149 -173 -22 -11 -41 -23 -41 -27 0 -4 16 -14 34 -23
91 -43 168 -169 196 -320 18 -95 27 -120 106 -285 78 -164 104 -250 104 -357
0 -133 -47 -258 -129 -343 -28 -29 -49 -55 -47 -57 2 -3 42 5 87 16 104 26
169 26 270 1 95 -24 117 -34 189 -78 199 -125 380 -386 380 -549 l0 -43 93 5
c77 5 103 3 162 -15 124 -38 188 -50 315 -60 201 -15 312 -50 441 -137 80 -53
126 -104 174 -194 l33 -61 33 63 c64 120 193 224 344 276 86 29 218 53 296 53
69 0 129 12 264 52 92 27 210 39 265 26 10 -2 18 13 26 52 26 131 67 213 167
336 100 124 233 220 367 266 85 29 237 31 324 5 32 -10 61 -16 64 -12 3 3 -15
27 -40 53 -59 61 -103 140 -122 222 -35 147 -14 252 95 480 60 126 85 191 104
275 14 61 37 133 49 161 27 58 117 154 164 173 18 8 32 17 32 21 0 4 -18 15
-41 25 -22 10 -64 45 -94 76 -59 64 -75 104 -119 292 -18 74 -47 153 -92 250
-81 174 -106 263 -106 377 0 136 37 226 140 348 25 29 42 55 39 59 -4 3 -35
-2 -71 -11 -81 -20 -230 -21 -305 -1 -130 33 -250 112 -367 239 -115 125 -184
258 -184 358 0 45 -11 61 -25 38 -3 -5 -46 -10 -95 -10 -81 0 -100 4 -210 45
-98 37 -141 47 -228 56 -207 19 -279 34 -387 81 -126 55 -212 135 -265 246
l-26 53 -29 -63z m56 -333 c29 -129 101 -250 235 -397 218 -237 289 -379 301
-599 l6 -106 -64 -43 c-35 -24 -103 -74 -151 -112 -48 -37 -89 -68 -90 -68 -2
0 -4 62 -4 138 -3 202 -9 219 -183 476 l-73 108 -23 -41 c-13 -22 -51 -80 -84
-128 -72 -106 -117 -199 -131 -272 -13 -70 -13 -261 0 -261 6 0 10 35 10 85 0
47 3 85 8 85 4 0 20 -22 37 -48 27 -43 29 -45 33 -22 13 101 42 190 109 336
l47 101 29 -61 c51 -106 94 -221 102 -267 10 -68 25 -119 34 -119 4 0 17 18
30 40 12 22 24 40 26 40 2 0 1 -51 -2 -112 l-6 -113 -80 -85 c-43 -47 -91
-102 -106 -122 -14 -21 -29 -37 -33 -35 -3 1 -31 32 -61 69 -148 181 -231 256
-422 383 -33 22 -63 45 -67 50 -4 6 -5 46 -2 90 14 228 77 365 259 565 179
197 248 324 270 495 10 75 17 85 27 40 4 -22 13 -62 19 -90z m992 -262 c4 -2
7 -33 7 -69 0 -80 17 -121 76 -187 36 -41 94 -141 94 -163 0 -12 -22 1 -59 35
-28 26 -61 44 -100 55 -36 10 -62 23 -66 34 -3 9 -8 67 -10 127 -3 61 -5 112
-5 114 0 2 -6 -1 -12 -7 -18 -15 -148 -39 -252 -47 -87 -7 -88 -7 -77 13 25
46 111 89 205 102 57 8 182 4 199 -7z m-1756 -8 c48 -14 123 -73 123 -97 0
-23 -244 5 -322 37 -17 7 -18 -2 -18 -98 0 -58 -3 -113 -6 -122 -4 -9 -35 -30
-70 -45 -35 -16 -81 -46 -103 -65 -22 -20 -42 -32 -45 -27 -8 14 41 109 88
170 60 79 64 89 72 181 l7 81 112 0 c70 0 130 -6 162 -15z m2581 -662 c-82
-86 -137 -162 -177 -246 -43 -89 -60 -159 -92 -370 -24 -167 -46 -242 -106
-364 -48 -100 -146 -217 -231 -275 -77 -53 -215 -116 -303 -138 -109 -27 -172
-45 -289 -81 -53 -16 -101 -29 -108 -29 -25 0 -11 -18 19 -24 120 -24 396 34
598 125 35 16 69 29 75 29 23 -1 108 -72 161 -137 76 -92 128 -202 171 -363
54 -202 108 -307 216 -425 26 -29 48 -55 48 -58 0 -3 -44 17 -97 45 -204 108
-372 130 -643 84 -85 -15 -198 -29 -250 -32 -232 -14 -477 66 -680 221 -93 71
-93 63 -5 157 116 125 184 235 236 380 24 68 25 79 12 90 -13 10 -19 8 -35
-12 -11 -14 -31 -47 -45 -75 -65 -128 -204 -313 -280 -371 l-36 -28 -34 40
c-74 88 -150 240 -178 356 -17 71 -20 185 -5 208 15 24 411 21 545 -4 117 -22
208 -46 285 -76 119 -47 129 -50 167 -42 20 4 38 12 40 18 10 29 -347 174
-428 174 -52 0 -56 13 -10 34 53 23 168 146 229 246 28 46 75 142 103 214 64
165 91 217 145 288 53 68 104 110 175 142 63 30 50 41 -40 34 -111 -8 -227
-91 -284 -204 -14 -27 -42 -103 -62 -168 -103 -324 -258 -499 -460 -521 -55
-6 -59 -5 -41 9 11 9 23 16 26 16 10 0 30 48 30 70 0 53 -65 197 -126 277
l-24 31 51 64 c132 165 369 373 536 469 93 53 222 105 294 120 30 6 167 12
304 14 258 3 296 7 455 56 36 11 90 33 120 48 77 40 81 38 28 -16z m-3653 23
c32 -21 183 -73 270 -91 59 -13 144 -18 324 -21 205 -3 259 -7 330 -24 173
-42 409 -185 591 -356 71 -67 217 -234 227 -259 2 -8 -25 -62 -61 -122 -36
-59 -86 -157 -111 -218 -59 -145 -67 -147 -170 -41 -111 115 -165 229 -245
520 -12 44 -31 99 -42 122 -27 58 -89 127 -142 158 -48 28 -171 54 -201 42
-14 -5 -7 -12 36 -34 70 -35 155 -122 201 -206 20 -37 58 -129 83 -204 25 -75
64 -174 85 -218 45 -93 141 -228 191 -267 26 -20 30 -27 16 -27 -26 0 -179
-55 -257 -91 -70 -33 -130 -74 -130 -90 0 -19 81 -8 157 21 85 33 195 65 258
74 22 4 52 9 66 12 l26 5 2 -99 c3 -165 49 -296 169 -476 l66 -98 -35 -29
c-110 -92 -289 -192 -408 -228 -37 -11 -111 -26 -164 -33 -99 -12 -187 -5
-452 38 -199 32 -379 3 -575 -94 -52 -26 -99 -49 -105 -51 -5 -2 15 23 45 55
123 131 159 198 221 413 48 171 73 229 134 322 50 75 155 176 193 186 21 5 80
-15 197 -68 88 -40 281 -79 387 -79 89 0 143 12 108 24 -8 2 -35 11 -60 19
-66 22 -183 54 -281 76 -332 77 -527 242 -627 531 -29 86 -44 156 -82 400 -14
86 -32 161 -51 206 -34 82 -108 190 -173 254 -44 42 -55 60 -38 60 4 0 16 -6
27 -14z m1863 -935 c24 -44 52 -107 63 -141 17 -54 18 -63 5 -82 -14 -20 -15
-20 -29 14 -8 19 -18 46 -22 59 -13 42 -57 110 -69 106 -17 -6 -36 -48 -36
-82 0 -16 12 -50 25 -74 14 -24 24 -45 23 -47 -2 -1 -46 -3 -98 -5 -78 -2 -94
0 -92 12 12 53 163 319 181 319 4 0 26 -36 49 -79z m-1848 24 c0 -40 -26 -126
-53 -178 -30 -58 -90 -112 -134 -124 -32 -7 -28 -19 12 -39 70 -33 132 -123
155 -224 6 -30 14 -63 17 -73 4 -15 0 -18 -18 -15 -17 2 -36 25 -71 83 -59 99
-116 167 -179 212 -27 19 -49 38 -49 41 0 4 20 20 45 35 47 30 124 114 171
187 49 78 76 110 90 110 8 0 14 -7 14 -15z m3719 -105 c76 -106 138 -172 184
-196 27 -15 36 -34 15 -34 -30 0 -119 -84 -178 -170 -112 -160 -139 -184 -125
-114 23 125 91 236 167 275 l41 21 -50 28 c-53 31 -98 81 -126 141 -20 43 -47
156 -40 163 13 13 46 -20 112 -114z m-1869 -1079 c19 -14 56 -43 82 -64 l48
-39 -20 -25 c-11 -14 -20 -29 -20 -34 0 -5 -27 -67 -60 -138 -33 -72 -64 -147
-68 -168 l-9 -38 -48 95 c-63 126 -138 312 -128 321 40 38 168 127 177 122 6
-4 27 -18 46 -32z m-306 -208 c24 -94 74 -184 159 -291 40 -49 77 -98 84 -108
11 -16 14 -17 22 -4 5 8 43 59 85 114 89 115 130 196 148 286 6 36 13 66 14
68 1 2 28 -9 60 -24 33 -14 97 -39 144 -54 64 -21 86 -33 88 -48 6 -40 -38
-217 -73 -290 -47 -98 -89 -155 -212 -284 -173 -183 -214 -259 -258 -481 -8
-41 -21 -25 -29 35 -11 82 -35 157 -73 228 -42 78 -81 127 -193 243 -46 49
-98 108 -116 132 -74 105 -121 238 -131 370 l-5 70 74 23 c40 13 98 36 128 51
30 16 57 29 60 30 3 0 14 -29 24 -66z m-765 -412 c72 -37 76 -48 67 -167 -4
-46 -5 -84 -3 -84 2 0 39 9 82 20 51 13 111 20 173 20 95 0 95 0 77 -20 -51
-57 -168 -90 -315 -90 l-78 0 -7 68 c-9 84 -21 114 -73 177 -37 44 -82 145
-82 183 0 9 21 -5 49 -31 27 -25 76 -59 110 -76z m2211 112 c0 -32 -59 -149
-100 -199 -46 -56 -51 -68 -60 -135 -5 -41 -10 -80 -10 -88 0 -12 -20 -13
-117 -8 -65 4 -141 13 -169 22 -53 16 -141 72 -129 83 3 4 55 5 115 4 97 -3
169 -15 223 -37 16 -7 17 2 17 107 l0 114 70 34 c38 18 86 51 107 72 35 36 53
47 53 31z"/>
<path d="M3935 2990 c-3 -5 -36 -28 -73 -50 -76 -45 -169 -71 -328 -94 -119
-17 -259 -55 -247 -67 4 -4 66 -16 136 -25 108 -14 141 -15 204 -6 91 15 177
58 244 123 44 43 89 104 89 122 0 10 -18 9 -25 -3z"/>
<path d="M2419 2417 c-23 -50 27 -149 92 -182 59 -31 165 -10 210 41 27 31 59
102 53 117 -5 14 -34 27 -60 27 -5 0 -18 -18 -28 -41 -13 -29 -28 -45 -53 -55
-70 -30 -131 5 -148 84 -5 25 -12 32 -31 32 -16 0 -28 -8 -35 -23z"/>
<path d="M3540 2043 c-8 -3 -52 -23 -98 -45 -136 -63 -300 -97 -470 -98 -63 0
-61 -10 10 -46 79 -40 177 -57 251 -44 99 18 146 47 259 156 86 83 93 94 48
77z"/>
<path d="M1177 2969 c34 -61 127 -151 192 -183 97 -50 232 -56 395 -19 49 11
65 18 54 24 -31 18 -136 40 -233 50 -163 16 -280 60 -377 140 -26 21 -49 39
-53 39 -3 0 6 -23 22 -51z"/>
<path d="M1570 2032 c0 -22 162 -164 212 -187 100 -46 247 -43 336 7 74 40 73
41 -113 57 -123 11 -206 32 -285 71 -61 31 -130 60 -141 60 -5 0 -9 -4 -9 -8z"/>
</g>
</svg>
