<?xml version="1.0" standalone="no"?>
<!DOCTYPE svg PUBLIC "-//W3C//DTD SVG 20010904//EN"
 "http://www.w3.org/TR/2001/REC-SVG-20010904/DTD/svg10.dtd">
<svg version="1.0" xmlns="http://www.w3.org/2000/svg"
 width="512.000000pt" height="512.000000pt" viewBox="0 0 512.000000 512.000000"
 preserveAspectRatio="xMidYMid meet">

<g transform="translate(0.000000,512.000000) scale(0.100000,-0.100000)"
fill="#000000" stroke="none">
<path d="M2529 4568 c-66 -142 -237 -232 -479 -253 -100 -8 -160 -22 -250 -57
-58 -23 -91 -30 -145 -30 -38 0 -77 2 -85 4 -10 2 -16 -10 -21 -48 -13 -99
-80 -210 -197 -321 -103 -99 -254 -163 -380 -163 -41 0 -70 5 -159 25 -35 8
-28 -13 18 -57 64 -63 102 -154 107 -260 4 -75 0 -101 -23 -175 -15 -48 -40
-114 -56 -145 -46 -92 -68 -154 -91 -257 -11 -53 -31 -117 -44 -142 -23 -47
-78 -102 -120 -121 -30 -14 -30 -22 -1 -35 80 -37 129 -115 166 -267 19 -75
46 -149 84 -226 75 -155 90 -211 85 -319 -7 -112 -35 -185 -100 -256 -56 -61
-52 -65 42 -40 137 37 287 -1 428 -106 117 -88 235 -273 248 -387 l6 -59 79 5
c66 4 93 0 165 -23 56 -17 126 -29 198 -35 268 -20 426 -100 515 -259 19 -33
37 -61 40 -61 3 0 15 19 26 43 28 59 128 156 202 195 82 43 181 67 330 81 80
7 150 20 200 37 57 19 101 26 163 28 l85 1 6 45 c10 68 44 145 101 227 150
216 387 324 590 267 32 -9 61 -14 65 -11 3 4 -13 25 -35 48 -51 51 -89 126
-104 207 -19 103 0 188 81 361 47 101 75 176 91 244 26 118 73 195 149 246
l50 34 -59 37 c-77 51 -106 101 -142 253 -19 80 -46 158 -82 236 -30 64 -62
141 -71 171 -16 56 -21 186 -9 237 12 50 61 137 104 186 23 26 40 50 37 53 -3
3 -34 -1 -69 -10 -116 -29 -241 -15 -347 39 -168 84 -330 287 -347 432 l-6 49
-87 -4 c-80 -4 -92 -2 -179 32 -74 29 -119 39 -229 51 -75 9 -162 23 -192 32
-135 38 -252 127 -300 226 -12 26 -24 47 -25 47 -2 0 -13 -23 -27 -52z m46
-255 c17 -79 56 -168 97 -226 13 -18 62 -75 109 -128 105 -118 141 -169 184
-262 39 -88 57 -173 53 -251 l-3 -60 -66 -45 c-36 -26 -88 -65 -116 -88 -28
-24 -53 -43 -56 -43 -2 0 -6 57 -9 128 -6 152 -11 168 -128 342 l-82 122 -24
-41 c-13 -23 -48 -79 -78 -124 -76 -114 -99 -186 -100 -314 -1 -57 -3 -103 -5
-103 -2 0 -42 28 -90 63 -47 35 -101 72 -118 82 -18 11 -33 24 -34 30 -4 57 6
161 21 220 32 126 62 172 251 389 80 91 132 193 153 298 9 42 16 80 16 83 0 3
2 5 4 5 2 0 12 -35 21 -77z m-642 -237 c54 -13 117 -55 117 -78 0 -20 -161 -6
-258 23 -10 3 -14 -16 -15 -81 -2 -47 -7 -91 -11 -99 -5 -7 -29 -22 -55 -34
-25 -11 -61 -33 -80 -49 -18 -16 -35 -27 -38 -24 -9 8 37 99 72 142 44 54 55
83 55 149 0 43 4 54 18 58 37 10 140 6 195 -7z m1463 -61 c11 -79 13 -82 65
-145 36 -43 69 -106 69 -132 0 -6 -15 2 -33 20 -18 17 -57 40 -87 50 l-55 19
-8 59 c-4 32 -6 78 -4 102 3 23 2 42 -2 42 -3 0 -28 -7 -54 -15 -63 -19 -227
-32 -227 -17 0 10 56 62 68 62 4 1 30 7 57 15 28 8 84 13 125 12 l75 -2 11
-70z m-722 -635 l22 -95 27 45 27 45 -7 -100 -6 -100 -61 -65 c-34 -36 -74
-80 -90 -99 l-28 -35 -26 35 c-15 19 -58 70 -97 114 l-70 80 5 85 5 85 17 -31
c9 -17 24 -36 32 -43 14 -12 16 -10 16 15 0 47 33 152 80 255 l44 97 44 -97
c24 -53 54 -139 66 -191z m1386 138 c-65 -65 -136 -172 -161 -243 -10 -29 -30
-122 -43 -207 -42 -259 -92 -382 -200 -492 -101 -102 -204 -156 -396 -206
-170 -45 -270 -75 -270 -81 0 -14 89 -19 160 -9 107 15 221 46 319 86 58 24
92 33 110 29 39 -10 152 -134 189 -208 18 -37 51 -128 73 -204 47 -161 80
-228 161 -323 l58 -70 -83 45 c-162 87 -313 105 -547 66 -146 -25 -305 -27
-403 -6 -124 26 -318 126 -386 199 l-24 26 49 52 c103 109 181 232 209 331 16
57 12 84 -11 69 -6 -4 -26 -34 -45 -67 -60 -108 -118 -191 -182 -259 -34 -36
-68 -66 -74 -66 -20 0 -90 101 -133 192 -43 93 -68 209 -56 270 l7 36 106 7
c58 4 143 5 187 1 122 -10 320 -53 398 -86 74 -32 163 -41 156 -17 -11 33
-266 138 -363 150 l-30 3 28 12 c83 35 198 188 266 352 96 236 152 316 263
379 l53 31 -58 0 c-73 0 -120 -20 -175 -73 -53 -51 -79 -101 -122 -232 -90
-274 -209 -403 -395 -429 l-40 -5 33 27 c26 22 32 34 32 65 0 41 -47 153 -85
203 -14 18 -25 39 -25 46 0 23 136 174 233 258 156 137 294 220 440 266 38 12
116 18 297 24 169 5 262 13 300 23 67 19 156 52 190 72 46 26 43 16 -10 -37z
m-2958 17 c116 -53 196 -67 443 -75 263 -8 313 -18 450 -85 149 -74 328 -223
462 -384 52 -64 53 -65 36 -90 -69 -105 -100 -165 -163 -318 -16 -39 -48 -28
-110 37 -88 91 -141 205 -200 425 -46 173 -128 254 -263 262 l-72 4 43 -24
c59 -32 127 -100 166 -167 18 -30 51 -111 75 -180 63 -183 123 -292 204 -373
23 -23 33 -39 25 -41 -121 -38 -163 -54 -213 -79 -145 -72 -113 -109 41 -47
57 22 245 70 276 70 1 0 3 -38 4 -84 1 -98 15 -155 60 -249 39 -81 68 -129
107 -180 l29 -37 -28 -23 c-102 -82 -218 -148 -334 -188 -97 -33 -276 -37
-436 -10 -230 40 -367 23 -553 -68 -45 -22 -81 -38 -81 -36 0 2 15 19 33 37
41 40 109 131 131 175 9 17 34 93 56 168 21 75 56 168 77 207 41 78 115 165
169 199 l35 21 97 -41 c168 -71 386 -110 457 -82 23 10 -80 44 -258 87 -146
36 -226 68 -306 125 -158 110 -246 285 -281 554 -30 233 -75 337 -204 473 -22
23 -38 42 -34 42 3 0 30 -11 60 -25z m1510 -774 c40 -80 56 -147 39 -164 -7
-7 -12 -5 -17 9 -18 52 -64 144 -73 144 -15 0 -31 -35 -31 -69 0 -16 9 -45 20
-64 l20 -34 -76 -7 c-42 -4 -79 -5 -81 -2 -8 7 58 142 101 211 20 31 42 55 49
52 6 -2 28 -36 49 -76z m-1535 0 c-10 -85 -62 -166 -126 -198 l-40 -20 45 -31
c24 -18 57 -52 73 -77 28 -44 60 -159 47 -172 -10 -11 -43 26 -82 93 -35 60
-95 125 -154 168 -24 17 -24 18 -6 29 42 25 116 101 152 155 78 116 100 129
91 53z m3063 -51 c41 -59 92 -116 120 -137 l49 -36 -45 -30 c-48 -31 -94 -84
-139 -157 -34 -56 -65 -91 -76 -84 -10 6 16 96 43 149 26 52 55 83 97 105 l35
17 -37 18 c-64 30 -125 125 -141 218 -11 63 17 45 94 -63z m-1503 -906 c65
-50 72 -59 60 -73 -18 -22 -119 -248 -127 -286 -6 -28 -11 -20 -68 97 -34 70
-64 140 -68 155 -4 15 -11 34 -17 41 -7 9 -5 17 10 27 11 8 42 32 69 54 27 22
53 40 58 40 5 1 43 -24 83 -55z m-279 -167 c24 -77 64 -144 143 -239 26 -31
49 -62 52 -70 5 -16 0 -22 80 86 82 109 116 176 124 244 3 29 10 52 15 52 5 0
46 -15 91 -34 45 -18 97 -37 115 -41 28 -6 32 -11 32 -39 0 -56 -38 -184 -76
-257 -25 -46 -71 -107 -135 -175 -54 -57 -112 -124 -129 -149 -45 -66 -87
-162 -95 -220 -12 -82 -20 -80 -39 7 -30 139 -76 217 -214 360 -78 81 -123
142 -151 207 -30 70 -51 158 -51 212 l0 47 48 15 c26 9 72 27 102 41 30 14 57
25 60 25 3 1 16 -32 28 -72z m-640 -311 l57 -31 0 -93 c0 -79 2 -91 15 -86 43
18 133 34 199 34 73 0 74 0 56 -20 -39 -43 -101 -62 -216 -68 l-109 -5 0 44
c-1 58 -19 107 -59 156 -29 37 -71 127 -71 155 0 7 16 -3 35 -22 19 -19 61
-48 93 -64z m1801 35 c-11 -32 -36 -77 -55 -99 -45 -53 -64 -100 -64 -158 l0
-47 -111 5 c-96 5 -118 9 -167 34 -30 16 -57 35 -60 42 -6 18 158 16 228 -3
30 -8 56 -15 58 -15 1 0 2 40 2 90 l0 90 58 29 c31 16 70 43 86 60 17 17 33
31 37 31 4 0 -1 -26 -12 -59z"/>
<path d="M3670 2898 c-54 -46 -143 -77 -275 -98 -137 -21 -261 -55 -235 -63
35 -12 151 -27 211 -27 99 0 170 25 247 87 37 30 92 101 92 118 0 10 -16 4
-40 -17z"/>
<path d="M2457 2459 c-37 -21 -10 -110 45 -153 46 -34 111 -36 159 -3 38 26
84 100 75 122 -8 21 -66 20 -66 0 0 -9 -11 -27 -25 -40 -35 -36 -96 -35 -124
1 -12 15 -21 35 -21 44 0 26 -22 40 -43 29z"/>
<path d="M3360 2133 c-8 -3 -46 -20 -85 -38 -94 -43 -191 -65 -321 -73 l-109
-7 70 -35 c62 -31 78 -35 150 -35 101 0 156 27 258 125 67 65 74 77 37 63z"/>
<path d="M1422 2899 c30 -53 118 -134 177 -161 65 -30 184 -35 285 -13 l79 18
-34 14 c-18 7 -63 18 -99 24 -36 5 -97 14 -137 20 -79 12 -185 58 -247 108
-21 17 -41 31 -43 31 -2 0 7 -18 19 -41z"/>
<path d="M1781 2093 c91 -106 168 -147 275 -147 55 1 83 7 130 28 72 33 63 41
-57 49 -109 7 -188 28 -281 72 -94 45 -108 45 -67 -2z"/>
</g>
</svg>
